<!DOCTYPE svg PUBLIC "-//W3C//DTD SVG 1.1//EN" "http://www.w3.org/Graphics/SVG/1.1/DTD/svg11.dtd">
<!-- Uploaded to: SVG Repo, www.svgrepo.com, Transformed by: SVG Repo Mixer Tools -->
<svg fill="#0077c8" height="800px" width="800px" version="1.1" id="Layer_1" xmlns="http://www.w3.org/2000/svg" xmlns:xlink="http://www.w3.org/1999/xlink" viewBox="0 0 222.223 222.223" xml:space="preserve" stroke="#0077c8">
<g id="SVGRepo_bgCarrier" stroke-width="0"/>
<g id="SVGRepo_tracerCarrier" stroke-linecap="round" stroke-linejoin="round"/>
<g id="SVGRepo_iconCarrier"> <g> <g> <g> <polygon points="75.778,169.697 67.697,169.697 67.697,181.818 55.576,181.818 55.576,189.899 67.697,189.899 67.697,202.02 75.778,202.02 75.778,189.899 87.899,189.899 87.899,181.818 75.778,181.818 "/> <path d="M153.444,126.823c0.021,0.025,0.039,0.053,0.061,0.078c7.895,9.415,19.243,14.595,31.108,14.595 c3.326,0,6.692-0.406,10.034-1.243l1.91-0.474l0.801-1.799c6.408-14.374,4.107-30.786-6.005-42.837 c-3.299-3.933-7.251-7.102-11.706-9.533c1.033-4.802,1.605-9.772,1.605-14.878c0-12.328-3.185-23.92-8.753-34.023 c-0.02-0.028-0.021-0.062-0.042-0.09c-0.008-0.011-0.02-0.015-0.028-0.025C160.361,14.801,137.143,0,110.516,0 C85.462,0,63.464,13.13,50.893,32.832c-0.227,0.268-0.392,0.569-0.545,0.896C43.692,44.51,39.781,57.16,39.781,70.735 c0,5.312,0.637,10.469,1.752,15.449c-4.029,2.354-7.624,5.335-10.665,8.963c-10.109,12.044-12.409,28.457-6.005,42.835 l0.801,1.799l1.91,0.474c3.342,0.836,6.708,1.243,10.034,1.243c11.665,0,22.813-5.031,30.689-14.144 c7.003,5.236,14.985,9.196,23.643,11.558v10.583H63.649c-20.048,0-36.356,16.312-36.356,36.364v36.364H196.99v-36.364 c0-20.052-16.307-36.364-36.356-36.364h-28.291v-11.51C140.049,135.477,147.147,131.654,153.444,126.823z M185.165,100.339 c7.674,9.15,9.738,21.437,5.571,32.505c-11.383,2.127-22.87-1.811-30.552-10.563c8.298-7.781,14.532-17.332,18.288-27.995 C180.959,95.971,183.196,97.998,185.165,100.339z M110.516,8.081c22.476,0,42.167,11.935,53.225,29.762 c-6.995,4.327-14.98,6.602-23.316,6.602c-16.541,0-31.613-9.097-39.339-23.743l-2.525-4.782l-3.871,3.776 c-8.349,8.144-19.37,12.628-31.033,12.628c-0.816,0-1.627-0.078-2.441-0.122C72.694,17.549,90.502,8.081,110.516,8.081z M31.483,132.844c-4.163-11.072-2.103-23.358,5.571-32.503c1.969-2.344,4.206-4.37,6.692-6.055 c3.756,10.659,9.991,20.21,18.288,27.995C54.353,131.033,42.871,134.971,31.483,132.844z M160.635,157.576 c15.589,0,28.275,12.689,28.275,28.283v28.283H35.374v-28.283c0-15.594,12.685-28.283,28.275-28.283h36.372v-16.162h9.406 c0.367,0.006,0.722,0.055,1.09,0.055c0.368,0,0.723-0.05,1.09-0.055h12.656v16.162H160.635z M111.606,133.333h-2.181 c-34.042-0.59-61.563-28.42-61.563-62.599c0-11.254,3.023-21.798,8.24-30.936c2.5,0.36,5.021,0.606,7.555,0.606 c12.074,0,23.572-4.068,32.868-11.549c9.667,14.718,26.061,23.67,43.9,23.67c9.686,0,18.966-2.615,27.133-7.566 c3.573,7.873,5.612,16.582,5.612,25.775C173.17,104.913,145.648,132.743,111.606,133.333z"/> <path d="M132.344,56.565c-8.914,0-16.162,7.25-16.162,16.162v4.04h8.081v-4.04c0-4.457,3.626-8.081,8.081-8.081 s8.081,3.624,8.081,8.081v4.04h8.081v-4.04C148.506,63.815,141.258,56.565,132.344,56.565z"/> <path d="M87.899,56.565c-8.914,0-16.162,7.25-16.162,16.162v4.04h8.081c0,0.001,0-4.04,0-4.04c0-4.457,3.626-8.081,8.081-8.081 c4.455,0,8.081,3.624,8.081,8.081v4.04h8.081v-4.04C104.061,63.815,96.813,56.565,87.899,56.565z"/> </g> </g> </g> </g>
</svg>